<?xml version="1.0" encoding="UTF-8" standalone="no"?>
<svg width="546px" height="702px" viewBox="0 0 546 702" version="1.1" xmlns="http://www.w3.org/2000/svg" xmlns:xlink="http://www.w3.org/1999/xlink">
    <!-- Generator: Sketch 42 (36781) - http://www.bohemiancoding.com/sketch -->
    <title>admin1</title>
    <desc>Created with Sketch.</desc>
    <defs></defs>
    <g id="Page-1" stroke="none" stroke-width="1" fill="none" fill-rule="evenodd">
        <g id="it-all" transform="translate(1.000000, 1.000000)" fill-rule="nonzero" stroke="#6E6E6E" stroke-width="0.4" fill="#CEE3F5">
         	
				<path fill="rgb(247, 118, 5)" class="pclass4" id="Hyderabad" d="M435.80176,439.43117L434.00093,439.43117L435.80176,441.23212L435.80176,443.03306L435.80176,444.83401L434.00093,444.83401 L434.00093,446.63496L432.20009,446.63496L430.39926,446.63496L430.39926,444.83401L430.39926,446.63496L428.59843,446.63496 L426.79759,444.83401L424.99676,443.03306L426.79759,441.23212L424.99676,441.23212L424.99676,439.43117L424.99676,437.63022 L424.99676,435.82927L424.99676,434.02833L426.79759,434.02833L428.59843,434.02833L426.79759,432.22738L428.59843,432.22738 L430.39926,434.02833L432.20009,435.82927L434.00093,435.82927L434.00093,437.63022L435.80176,437.63022L435.80176,439.43117 L435.80176,439.43117" onmouseover="ShowTooltip(evt, 'Hyderabad','88.16','4414','5007')" onmouseout="HideTooltip(evt)" onclick="gettrend('2116','29');getmulticmp('2116','29','2016-08')"></path>
				<text x="458" y="475" id="kha" class="textstyle" onmouseover="ShowTooltip(evt, 'Hyderabad','88.16','4414','5007')" onmouseout="HideTooltip(evt)" onclick="gettrend('2116','29');getmulticmp('2116','29','2016-08')"></text>
				
        <path fill="rgb(247, 118, 5)" class="pclass4" id="Dadu" d="M388.98008,367.39327L390.78092,367.39327L390.78092,369.19422L390.78092,367.39327L392.58175,367.39327L394.38259,367.39327 L394.38259,369.19422L396.18342,369.19422L397.98425,369.19422L399.78509,369.19422L401.58592,369.19422L401.58592,370.99517 L403.38675,370.99517L405.18759,370.99517L406.98842,370.99517L408.78925,370.99517L408.78925,369.19422L410.59009,370.99517 L412.39092,370.99517L414.19176,370.99517L412.39092,370.99517L412.39092,372.79611L412.39092,374.59706L414.19176,374.59706 L414.19176,376.39801L415.99259,376.39801L415.99259,378.19896L414.19176,378.19896L412.39092,378.19896L410.59009,378.19896 L410.59009,379.9999L412.39092,379.9999L412.39092,381.80085L410.59009,381.80085L410.59009,383.6018L412.39092,383.6018L410.59009,383.6018 L408.78925,385.40275L408.78925,387.20369L408.78925,389.00464L408.78925,390.80559L408.78925,392.60654L408.78925,394.40748 L406.98842,394.40748L406.98842,396.20843L406.98842,394.40748L405.18759,394.40748L405.18759,396.20843L403.38675,396.20843 L401.58592,396.20843L401.58592,398.00938L401.58592,399.81033L399.78509,401.61127L399.78509,403.41222L399.78509,405.21317 L397.98425,405.21317L396.18342,405.21317L396.18342,407.01411L396.18342,408.81506L396.18342,410.61601L394.38259,410.61601 L394.38259,412.41696L392.58175,412.41696L392.58175,410.61601L390.78092,410.61601L390.78092,408.81506L390.78092,407.01411 L388.98008,407.01411L387.17925,405.21317L387.17925,403.41222L387.17925,401.61127L385.37842,401.61127L385.37842,399.81033 L383.57758,398.00938L383.57758,396.20843L383.57758,394.40748L383.57758,392.60654L383.57758,390.80559L383.57758,389.00464 L383.57758,387.20369L383.57758,385.40275L383.57758,383.6018L383.57758,381.80085L383.57758,379.9999L383.57758,378.19896L383.57758,376.39801 L383.57758,374.59706L383.57758,372.79611L383.57758,370.99517L383.57758,369.19422L383.57758,367.39327L385.37842,367.39327 L385.37842,365.59232L387.17925,365.59232L387.17925,367.39327L388.98008,367.39327L388.98008,367.39327" onmouseover="ShowTooltip(evt, 'Dadu','112.6','4494','3991')" onmouseout="HideTooltip(evt)" onclick="gettrend('2114','29');getmulticmp('2114','29','2016-08')"></path>
				<text x="419" y="419" id="kha" class="textstyle" onmouseover="ShowTooltip(evt, 'Dadu','112.6','4494','3991')" onmouseout="HideTooltip(evt)" onclick="gettrend('2114','29');getmulticmp('2114','29','2016-08')"></text>
			
      	<path fill="rgb(247, 118, 5)" class="pclass4" id="Jamshoro" d="M408.78925,398.00938L410.59009,398.00938L410.59009,399.81033L408.78925,401.61127L410.59009,401.61127L410.59009,403.41222 L408.78925,405.21317L408.78925,407.01411L410.59009,407.01411L412.39092,408.81506L414.19176,408.81506L414.19176,410.61601 L415.99259,412.41696L417.79342,414.2179L419.59426,416.01885L423.19592,416.01885L423.19592,417.8198L421.39509,419.62075L423.19592,419.62075 L423.19592,421.42169L424.99676,421.42169L424.99676,423.22264L424.99676,425.02359L424.99676,426.82454L426.79759,426.82454 L428.59843,426.82454L428.59843,428.62548L430.39926,428.62548L428.59843,428.62548L426.79759,430.42643L426.79759,432.22738 L428.59843,434.02833L426.79759,434.02833L424.99676,434.02833L424.99676,435.82927L424.99676,437.63022L424.99676,439.43117 L424.99676,441.23212L426.79759,441.23212L424.99676,441.23212L423.19592,441.23212L421.39509,441.23212L419.59426,441.23212 L417.79342,439.43117L417.79342,437.63022L415.99259,437.63022L415.99259,435.82927L414.19176,435.82927L414.19176,437.63022 L412.39092,437.63022L412.39092,439.43117L410.59009,439.43117L410.59009,441.23212L410.59009,443.03306L408.78925,443.03306 L406.98842,444.83401L406.98842,446.63496L406.98842,448.43591L405.18759,448.43591L405.18759,450.23685L403.38675,452.0378L 401.58592,452.0378L399.78509,452.0378L399.78509,453.83875L397.98425,453.83875L397.98425,452.0378L396.18342,452.0378L396.18342,450.23685 L394.38259,448.43591L392.58175,446.63496L390.78092,446.63496L388.98008,446.63496L388.98008,444.83401L388.98008,443.03306 L390.78092,443.03306L390.78092,441.23212L392.58175,439.43117L392.58175,437.63022L392.58175,435.82927L392.58175,434.02833 L392.58175,432.22738L392.58175,430.42643L392.58175,428.62548L390.78092,428.62548L390.78092,426.82454L390.78092,425.02359 L392.58175,425.02359L392.58175,423.22264L392.58175,421.42169L392.58175,419.62075L392.58175,417.8198L392.58175,416.01885L 394.38259,414.2179L392.58175,412.41696L394.38259,412.41696L394.38259,410.61601L396.18342,410.61601L396.18342,408.81506L396.18342,407.01411 L396.18342,405.21317L397.98425,405.21317L399.78509,405.21317L399.78509,403.41222L399.78509,401.61127L401.58592,399.81033 L401.58592,398.00938L401.58592,396.20843L403.38675,396.20843L405.18759,396.20843L405.18759,394.40748L406.98842,394.40748 L406.98842,396.20843L408.78925,396.20843L408.78925,398.00938" onmouseover="ShowTooltip(evt, 'Jamshoro','110.56','2321','2099')" onmouseout="HideTooltip(evt)" onclick="gettrend('2146','29');getmulticmp('2146','29','2016-08')"></path>
				<text x="435" y="458" id="kha" class="textstyle" onmouseover="ShowTooltip(evt, 'Jamshoro','110.56','2321','2099')" onmouseout="HideTooltip(evt)" onclick="gettrend('2146','29');getmulticmp('2146','29','2016-08')"></text>
	
        <path fill="rgb(247, 118, 5)" class="pclass4" id="Matiari" d="M428.59843,414.2179L430.39926,414.2179L432.20009,414.2179L434.00093,414.2179L432.20009,414.2179L432.20009,416.01885L432.20009,417.8198 L430.39926,417.8198L430.39926,419.62075L430.39926,421.42169L432.20009,421.42169L432.20009,423.22264L434.00093,423.22264L 434.00093,425.02359L434.00093,426.82454L435.80176,426.82454L437.60259,426.82454L437.60259,428.62548L437.60259,430.42643L 435.80176,432.22738L435.80176,434.02833L434.00093,435.82927L432.20009,435.82927L430.39926,434.02833L428.59843,432.22738L 426.79759,432.22738L426.79759,430.42643L428.59843,428.62548L430.39926,428.62548L428.59843,428.62548L428.59843,426.82454L 426.79759,426.82454L424.99676,426.82454L424.99676,425.02359L424.99676,423.22264L424.99676,421.42169L423.19592,421.42169L 423.19592,419.62075L421.39509,419.62075L423.19592,417.8198L423.19592,416.01885L424.99676,416.01885L424.99676,414.2179L426.79759,414.2179 L426.79759,412.41696L428.59843,414.2179L428.59843,414.2179" onmouseover="ShowTooltip(evt, 'Matiari','92.3','1528','1655')" onmouseout="HideTooltip(evt)" onclick="gettrend('2046','29');getmulticmp('2046','29','2016-08')"></path>
				<text x="458" y="458" id="kha" class="textstyle" onmouseover="ShowTooltip(evt, 'Matiari','92.3','1528','1655')" onmouseout="HideTooltip(evt)" onclick="gettrend('2046','29');getmulticmp('2046','29','2016-08')"></text>
	      
        <path fill="rgb(247, 118, 5)" class="pclass4" id="Tando Allah Yar" d="M443.0051,426.82454L444.80593,426.82454L446.60676,428.62548L444.80593,430.42643L444.80593,432.22738L446.60676,434.02833L 446.60676,435.82927L448.4076,437.63022L448.4076,441.23212L446.60676,443.03306L444.80593,443.03306L444.80593,444.83401L443.0051,444.83401 L441.20426,444.83401L441.20426,443.03306L439.40343,443.03306L439.40343,441.23212L437.60259,441.23212L437.60259,443.03306 L435.80176,443.03306L435.80176,441.23212L434.00093,439.43117L435.80176,439.43117L435.80176,437.63022L434.00093,437.63022 L434.00093,435.82927L435.80176,434.02833L435.80176,432.22738L437.60259,430.42643L437.60259,428.62548L437.60259,426.82454 L439.40343,426.82454L439.40343,425.02359L441.20426,425.02359L443.0051,425.02359L443.0051,426.82454" onmouseover="ShowTooltip(evt, 'Tando Allah Yar','132.84','2196','1653')" onmouseout="HideTooltip(evt)" onclick="gettrend('2076','29');getmulticmp('2076','29','2016-08')"></path>
				<text x="469" y="470" id="kha" class="textstyle" onmouseover="ShowTooltip(evt, 'Tando Allah Yar','132.84','2196','1653')" onmouseout="HideTooltip(evt)" onclick="gettrend('2076','29');getmulticmp('2076','29','2016-08')"></text>

        <path fill="rgb(247, 118, 5)" class="pclass4" id="Tando Muhammad Khan" d="M437.60259,444.83401L435.80176,444.83401L435.80176,446.63496L437.60259,446.63496L435.80176,448.43591L434.00093,448.43591 L434.00093,450.23685L435.80176,450.23685L437.60259,450.23685L439.40343,452.0378L441.20426,453.83875L439.40343,453.83875L 439.40343,455.63969L441.20426,455.63969L439.40343,455.63969L437.60259,455.63969L435.80176,455.63969L434.00093,457.44064L 434.00093,455.63969L432.20009,455.63969L432.20009,457.44064L430.39926,455.63969L430.39926,457.44064L430.39926,459.24159L 428.59843,459.24159L426.79759,459.24159L426.79759,461.04254L426.79759,459.24159L424.99676,459.24159L424.99676,457.44064L 423.19592,457.44064L423.19592,455.63969L424.99676,453.83875L423.19592,453.83875L423.19592,452.0378L423.19592,450.23685L423.19592,448.43591 L424.99676,446.63496L426.79759,446.63496L426.79759,444.83401L424.99676,444.83401L426.79759,444.83401L428.59843,446.63496 L430.39926,446.63496L430.39926,444.83401L430.39926,446.63496L432.20009,446.63496L434.00093,446.63496L434.00093,444.83401 L435.80176,444.83401L435.80176,443.03306L437.60259,443.03306L437.60259,441.23212L439.40343,441.23212L439.40343,443.03306 L439.40343,444.83401L437.60259,444.83401L437.60259,444.83401" onmouseover="ShowTooltip(evt, 'Tando Muhammad Khan','109.09','1494','1369')" onmouseout="HideTooltip(evt)" onclick="gettrend('2134','29');getmulticmp('2134','29','2016-08')"></path>
				<text x="458" y="488" id="kha" class="textstyle" onmouseover="ShowTooltip(evt, 'Tando Muhammad Khan','109.09','1494','1369')" onmouseout="HideTooltip(evt)" onclick="gettrend('2134','29');getmulticmp('2134','29','2016-08')"></text>


    </g>     </g>
		   
		   
		   </svg>