<?xml version="1.0" encoding="UTF-8" standalone="no"?>
<svg width="546px" height="702px" viewBox="0 0 546 702" version="1.1" xmlns="http://www.w3.org/2000/svg" xmlns:xlink="http://www.w3.org/1999/xlink">
    <!-- Generator: Sketch 42 (36781) - http://www.bohemiancoding.com/sketch -->
    <title>admin1</title>
    <desc>Created with Sketch.</desc>
    <defs></defs>
    <g id="Page-1" stroke="none" stroke-width="1" fill="none" fill-rule="evenodd">
        <g id="it-all" transform="translate(1.000000, 1.000000)" fill-rule="nonzero" stroke="#6E6E6E" stroke-width="0.4" fill="#CEE3F5">
         	
				
				
			<path fill="rgb(130, 247, 5)" class="pclass4" id="Mirpurkhas" d="M448.4076,426.82454L450.20843,426.82454L452.00926,426.82454L453.8101,426.82454L453.8101,428.62548L455.61093,430.42643L455.61093,432.22738 L455.61093,434.02833L455.61093,435.82927L457.41177,435.82927L457.41177,437.63022L459.2126,437.63022L459.2126,439.43117L461.01343,439.43117 L461.01343,441.23212L462.81427,441.23212L462.81427,443.03306L462.81427,444.83401L462.81427,446.63496L464.6151,448.43591L 462.81427,448.43591L462.81427,450.23685L464.6151,450.23685L464.6151,452.0378L466.41593,452.0378L466.41593,453.83875L466.41593,455.63969 L466.41593,457.44064L464.6151,457.44064L462.81427,457.44064L461.01343,459.24159L461.01343,457.44064L459.2126,457.44064L461.01343,457.44064 L461.01343,455.63969L459.2126,453.83875L457.41177,453.83875L455.61093,453.83875L455.61093,452.0378L453.8101,452.0378L453.8101,450.23685 L452.00926,450.23685L452.00926,448.43591L450.20843,448.43591L448.4076,446.63496L448.4076,444.83401L448.4076,441.23212L448.4076,437.63022 L446.60676,435.82927L446.60676,434.02833L444.80593,432.22738L444.80593,430.42643L446.60676,428.62548L444.80593,426.82454 L446.60676,425.02359L448.4076,426.82454" onmouseover="ShowTooltip(evt, 'Mirpurkhas','108.03','3542','3279')" onmouseout="HideTooltip(evt)" onclick="gettrend('2120','29');getmulticmp('2120','29','2016-08')"></path>
			<text x="484" y="477" id="kha" class="textstyle" onmouseover="ShowTooltip(evt, 'Mirpurkhas','108.03','3542','3279')" onmouseout="HideTooltip(evt)" onclick="gettrend('2120','29');getmulticmp('2120','29','2016-08')"></text>
			
      <path fill="rgb(130, 247, 5)" class="pclass4" id="Sanghar" d="M446.60676,401.61127L448.4076,401.61127L448.4076,403.41222L448.4076,405.21317L450.20843,405.21317L452.00926,405.21317L452.00926,407.01411 L452.00926,408.81506L453.8101,408.81506L457.41177,408.81506L459.2126,408.81506L462.81427,408.81506L466.41593,408.81506L468.21677,408.81506 L470.0176,408.81506L471.81843,408.81506L473.61927,408.81506L475.4201,408.81506L477.22094,408.81506L479.02177,408.81506L480.8226,410.61601 L482.62344,408.81506L482.62344,410.61601L484.42427,410.61601L486.2251,410.61601L488.02594,410.61601L488.02594,412.41696L 489.82677,412.41696L488.02594,412.41696L488.02594,414.2179L488.02594,416.01885L488.02594,417.8198L488.02594,419.62075L489.82677,421.42169 L491.62761,421.42169L491.62761,423.22264L493.42844,423.22264L491.62761,425.02359L489.82677,425.02359L488.02594,425.02359 L486.2251,425.02359L484.42427,425.02359L484.42427,426.82454L482.62344,425.02359L480.8226,426.82454L479.02177,426.82454L479.02177,428.62548 L477.22094,428.62548L477.22094,430.42643L475.4201,432.22738L473.61927,432.22738L473.61927,434.02833L471.81843,434.02833L 470.0176,434.02833L470.0176,432.22738L468.21677,432.22738L466.41593,432.22738L464.6151,432.22738L462.81427,432.22738L461.01343,432.22738 L459.2126,432.22738L457.41177,432.22738L455.61093,432.22738L455.61093,430.42643L453.8101,428.62548L453.8101,426.82454L452.00926,426.82454 L450.20843,426.82454L448.4076,426.82454L446.60676,425.02359L444.80593,426.82454L443.0051,426.82454L443.0051,425.02359L441.20426,425.02359 L439.40343,425.02359L439.40343,426.82454L437.60259,426.82454L437.60259,428.62548L437.60259,426.82454L435.80176,426.82454 L434.00093,426.82454L434.00093,425.02359L434.00093,423.22264L432.20009,423.22264L432.20009,421.42169L430.39926,421.42169 L430.39926,419.62075L430.39926,417.8198L432.20009,417.8198L432.20009,416.01885L432.20009,414.2179L434.00093,414.2179L432.20009,414.2179 L430.39926,414.2179L428.59843,414.2179L430.39926,414.2179L430.39926,412.41696L428.59843,410.61601L428.59843,408.81506L430.39926,408.81506 L430.39926,407.01411L432.20009,407.01411L432.20009,408.81506L434.00093,408.81506L435.80176,410.61601L435.80176,408.81506 L435.80176,410.61601L437.60259,410.61601L437.60259,408.81506L437.60259,407.01411L435.80176,407.01411L435.80176,405.21317 L437.60259,405.21317L439.40343,405.21317L441.20426,405.21317L443.0051,403.41222L443.0051,401.61127L444.80593,401.61127L444.80593,399.81033 L446.60676,399.81033L446.60676,401.61127" onmouseover="ShowTooltip(evt, 'Sanghar','99.78','5284','5295')" onmouseout="HideTooltip(evt)" onclick="gettrend('2123','29');getmulticmp('2123','29','2016-08')"></path>
			<text x="492" y="451" id="kha" class="textstyle" onmouseover="ShowTooltip(evt, 'Sanghar','99.78','5284','5295')" onmouseout="HideTooltip(evt)" onclick="gettrend('2123','29');getmulticmp('2123','29','2016-08')"></text>
					
      <path fill="rgb(130, 247, 5)" class="pclass4" id="Tharparkar" d="M498.83094,428.62548L500.63177,428.62548L502.43261,426.82454L504.23344,426.82454L506.03428,426.82454L507.83511,426.82454 L507.83511,428.62548L507.83511,430.42643L507.83511,432.22738L507.83511,434.02833L507.83511,435.82927L507.83511,437.63022 L509.63594,439.43117L511.43678,441.23212L511.43678,443.03306L513.23761,443.03306L515.03844,444.83401L515.03844,446.63496 L516.83928,448.43591L516.83928,450.23685L516.83928,452.0378L518.64011,455.63969L520.44095,457.44064L520.44095,459.24159L 522.24178,459.24159L522.24178,461.04254L522.24178,462.84348L524.04261,462.84348L522.24178,462.84348L522.24178,464.64443L 520.44095,464.64443L520.44095,466.44538L520.44095,468.24633L520.44095,470.04727L520.44095,471.84822L522.24178,471.84822L 524.04261,471.84822L524.04261,473.64917L522.24178,473.64917L522.24178,475.45012L520.44095,475.45012L520.44095,473.64917L 518.64011,473.64917L518.64011,475.45012L516.83928,475.45012L515.03844,477.25106L516.83928,477.25106L516.83928,479.05201L 515.03844,479.05201L513.23761,479.05201L511.43678,479.05201L509.63594,479.05201L507.83511,479.05201L506.03428,479.05201L 504.23344,479.05201L504.23344,477.25106L506.03428,477.25106L504.23344,477.25106L506.03428,477.25106L506.03428,475.45012L 504.23344,475.45012L504.23344,473.64917L506.03428,473.64917L506.03428,471.84822L504.23344,471.84822L504.23344,473.64917L 502.43261,473.64917L500.63177,473.64917L498.83094,475.45012L497.03011,475.45012L495.22927,475.45012L493.42844,475.45012L 491.62761,475.45012L491.62761,477.25106L489.82677,477.25106L488.02594,477.25106L488.02594,479.05201L488.02594,480.85296L 486.2251,480.85296L484.42427,480.85296L482.62344,480.85296L480.8226,480.85296L479.02177,480.85296L477.22094,480.85296L475.4201,480.85296 L473.61927,480.85296L473.61927,479.05201L471.81843,479.05201L471.81843,477.25106L470.0176,477.25106L468.21677,477.25106L 466.41593,477.25106L464.6151,477.25106L462.81427,477.25106L461.01343,477.25106L459.2126,477.25106L457.41177,479.05201L455.61093,479.05201 L453.8101,479.05201L453.8101,477.25106L452.00926,477.25106L452.00926,475.45012L452.00926,473.64917L452.00926,471.84822L453.8101,471.84822 L453.8101,470.04727L455.61093,468.24633L457.41177,468.24633L457.41177,466.44538L455.61093,466.44538L457.41177,464.64443L 457.41177,466.44538L457.41177,464.64443L457.41177,462.84348L459.2126,461.04254L457.41177,461.04254L459.2126,461.04254L461.01343,459.24159 L462.81427,457.44064L464.6151,457.44064L466.41593,457.44064L466.41593,455.63969L468.21677,455.63969L470.0176,453.83875L470.0176,452.0378 L471.81843,450.23685L473.61927,452.0378L475.4201,452.0378L475.4201,450.23685L475.4201,448.43591L473.61927,448.43591L473.61927,446.63496 L475.4201,446.63496L479.02177,444.83401L480.8226,443.03306L482.62344,444.83401L484.42427,444.83401L486.2251,444.83401L488.02594,444.83401 L489.82677,444.83401L489.82677,443.03306L491.62761,443.03306L491.62761,444.83401L493.42844,443.03306L493.42844,444.83401 L495.22927,443.03306L495.22927,441.23212L495.22927,439.43117L497.03011,437.63022L495.22927,437.63022L493.42844,437.63022 L493.42844,435.82927L495.22927,434.02833L495.22927,432.22738L493.42844,432.22738L491.62761,432.22738L493.42844,430.42643 L491.62761,430.42643L489.82677,430.42643L489.82677,428.62548L491.62761,428.62548L493.42844,426.82454L495.22927,426.82454 L497.03011,426.82454L498.83094,428.62548" onmouseover="ShowTooltip(evt, 'Tharparkar','96.04','3349','3487')" onmouseout="HideTooltip(evt)" onclick="gettrend('2126','29');getmulticmp('2126','29','2016-08')"></path>
			<text x="528" y="497" id="kha" class="textstyle" onmouseover="ShowTooltip(evt, 'Tharparkar','96.04','3349','3487')" onmouseout="HideTooltip(evt)" onclick="gettrend('2126','29');getmulticmp('2126','29','2016-08')"></text>

      <path fill="rgb(130, 247, 5)" class="pclass4" id="Umerkot" d="M493.42844,425.02359L493.42844,426.82454L491.62761,428.62548L489.82677,428.62548L489.82677,430.42643L491.62761,430.42643 L493.42844,430.42643L491.62761,432.22738L493.42844,432.22738L495.22927,432.22738L495.22927,434.02833L493.42844,435.82927 L493.42844,437.63022L495.22927,437.63022L497.03011,437.63022L495.22927,439.43117L495.22927,441.23212L495.22927,443.03306 L493.42844,444.83401L493.42844,443.03306L491.62761,444.83401L491.62761,443.03306L489.82677,443.03306L489.82677,444.83401 L488.02594,444.83401L486.2251,444.83401L484.42427,444.83401L482.62344,444.83401L480.8226,443.03306L479.02177,444.83401L475.4201,446.63496 L473.61927,446.63496L473.61927,448.43591L475.4201,448.43591L475.4201,450.23685L475.4201,452.0378L473.61927,452.0378L471.81843,450.23685 L470.0176,452.0378L470.0176,453.83875L468.21677,455.63969L466.41593,455.63969L466.41593,453.83875L466.41593,452.0378L464.6151,452.0378 L464.6151,450.23685L462.81427,450.23685L462.81427,448.43591L464.6151,448.43591L462.81427,446.63496L462.81427,444.83401L462.81427,443.03306 L462.81427,441.23212L461.01343,441.23212L461.01343,439.43117L459.2126,439.43117L459.2126,437.63022L457.41177,437.63022L457.41177,435.82927 L455.61093,435.82927L455.61093,434.02833L455.61093,432.22738L457.41177,432.22738L459.2126,432.22738L461.01343,432.22738L 462.81427,432.22738L464.6151,432.22738L466.41593,432.22738L468.21677,432.22738L470.0176,432.22738L470.0176,434.02833L471.81843,434.02833 L473.61927,434.02833L473.61927,432.22738L475.4201,432.22738L477.22094,430.42643L477.22094,428.62548L479.02177,428.62548L 479.02177,426.82454L480.8226,426.82454L482.62344,425.02359L484.42427,426.82454L484.42427,425.02359L486.2251,425.02359L488.02594,425.02359 L489.82677,425.02359L491.62761,425.02359L493.42844,423.22264L493.42844,425.02359" onmouseover="ShowTooltip(evt, 'Umerkot','136.43','3511','2574')" onmouseout="HideTooltip(evt)" onclick="gettrend('2128','29');getmulticmp('2128','29','2016-08')"></path>
			<text x="510" y="474" id="kha" class="textstyle" onmouseover="ShowTooltip(evt, 'Umerkot','136.43','3511','2574')" onmouseout="HideTooltip(evt)" onclick="gettrend('2128','29');getmulticmp('2128','29','2016-08')"></text>




    </g>     </g>
		   
		   
		   </svg>