<?xml version="1.0" encoding="UTF-8" standalone="no"?>
<svg width="546px" height="702px" viewBox="0 0 546 702" version="1.1" xmlns="http://www.w3.org/2000/svg" xmlns:xlink="http://www.w3.org/1999/xlink">
    <!-- Generator: Sketch 42 (36781) - http://www.bohemiancoding.com/sketch -->
    <title>admin1</title>
    <desc>Created with Sketch.</desc>
    <defs></defs>
    <g id="Page-1" stroke="none" stroke-width="1" fill="none" fill-rule="evenodd">
        <g id="it-all" transform="translate(1.000000, 1.000000)" fill-rule="nonzero" stroke="#6E6E6E" stroke-width="0.4" fill="#CEE3F5">
         	
				<path fill="rgb(5, 170, 247)" class="pclass4" id="Shaheed Benazeerabad" d="M434.00093,394.40748L435.80176,396.20843L437.60259,396.20843L441.20426,396.20843L443.0051,396.20843L443.0051,398.00938L443.0051,399.81033 L444.80593,399.81033L444.80593,401.61127L443.0051,401.61127L443.0051,403.41222L441.20426,405.21317L439.40343,405.21317L437.60259,405.21317 L435.80176,405.21317L435.80176,407.01411L437.60259,407.01411L437.60259,408.81506L437.60259,410.61601L435.80176,410.61601 L435.80176,408.81506L435.80176,410.61601L434.00093,408.81506L432.20009,408.81506L432.20009,407.01411L430.39926,407.01411 L430.39926,408.81506L428.59843,408.81506L428.59843,410.61601L430.39926,412.41696L430.39926,414.2179L428.59843,414.2179L426.79759,412.41696 L426.79759,414.2179L424.99676,414.2179L424.99676,416.01885L423.19592,416.01885L423.19592,417.8198L423.19592,416.01885L419.59426,416.01885 L417.79342,414.2179L415.99259,412.41696L414.19176,410.61601L414.19176,408.81506L412.39092,408.81506L410.59009,407.01411L 408.78925,407.01411L408.78925,405.21317L410.59009,403.41222L410.59009,401.61127L408.78925,401.61127L410.59009,399.81033L 410.59009,398.00938L412.39092,396.20843L414.19176,396.20843L414.19176,394.40748L415.99259,396.20843L417.79342,396.20843L 419.59426,396.20843L421.39509,396.20843L423.19592,394.40748L424.99676,394.40748L426.79759,394.40748L428.59843,394.40748L 430.39926,394.40748L432.20009,394.40748L434.00093,394.40748L434.00093,394.40748" onmouseover="ShowTooltip(evt, 'Shaheed Benazeerabad','127.95','4386','3428')" onmouseout="HideTooltip(evt)" onclick="gettrend('2122','29');getmulticmp('2122','29','2016-08')"></path>
				<text x="450" y="436" id="kha" class="textstyle" onmouseover="ShowTooltip(evt, 'Shaheed Benazeerabad','127.95','4386','3428')" onmouseout="HideTooltip(evt)" onclick="gettrend('2122','29');getmulticmp('2122','29','2016-08')"></text>
			 
        <path fill="rgb(5, 170, 247)" class="pclass4" id="Naushehro Feroze" d="M419.59426,372.79611L421.39509,372.79611L423.19592,372.79611L423.19592,374.59706L423.19592,372.79611L424.99676,372.79611 L424.99676,374.59706L426.79759,374.59706L426.79759,376.39801L428.59843,376.39801L428.59843,378.19896L430.39926,378.19896 L430.39926,379.9999L428.59843,379.9999L428.59843,381.80085L426.79759,381.80085L426.79759,383.6018L424.99676,385.40275L424.99676,387.20369 L424.99676,389.00464L424.99676,390.80559L423.19592,392.60654L424.99676,394.40748L426.79759,394.40748L424.99676,394.40748 L423.19592,394.40748L421.39509,396.20843L419.59426,396.20843L417.79342,396.20843L415.99259,396.20843L414.19176,394.40748 L414.19176,396.20843L412.39092,396.20843L410.59009,398.00938L408.78925,398.00938L408.78925,396.20843L406.98842,396.20843 L406.98842,394.40748L408.78925,394.40748L408.78925,392.60654L408.78925,390.80559L408.78925,389.00464L408.78925,387.20369 L408.78925,385.40275L410.59009,383.6018L412.39092,383.6018L410.59009,383.6018L410.59009,381.80085L412.39092,381.80085L412.39092,379.9999 L410.59009,379.9999L410.59009,378.19896L412.39092,378.19896L414.19176,378.19896L415.99259,378.19896L415.99259,376.39801L 417.79342,376.39801L417.79342,374.59706L419.59426,374.59706L419.59426,372.79611L419.59426,372.79611" onmouseover="ShowTooltip(evt, 'Naushehro Feroze','124.09','4307','3471')" onmouseout="HideTooltip(evt)" onclick="gettrend('2121','29');getmulticmp('2121','29','2016-08')"></path>
				<text x="445" y="415" id="kha" class="textstyle" onmouseover="ShowTooltip(evt, 'Naushehro Feroze','124.09','4307','3471')" onmouseout="HideTooltip(evt)" onclick="gettrend('2121','29');getmulticmp('2121','29','2016-08')"></text>
	
				

    </g>     </g>
		   
		   
		   </svg>